<?xml version="1.0" encoding="utf-8"?>
<!-- Generator: Adobe Illustrator 21.0.0, SVG Export Plug-In . SVG Version: 6.00 Build 0)  -->
<svg version="1.1" id="Layer_1" xmlns="http://www.w3.org/2000/svg" xmlns:xlink="http://www.w3.org/1999/xlink" x="0px" y="0px"
	 viewBox="0 0 1439 477" style="enable-background:new 0 0 1439 477;" xml:space="preserve">
<style type="text/css">
	.st0{fill:#C4C4C4;filter:url(#Adobe_OpacityMaskFilter);}
	.st1{mask:url(#mask0_219_943);}
	.st2{fill:#99E7FF;}
	.st3{fill:#50EFEF;}
</style>
<defs>
	<filter id="Adobe_OpacityMaskFilter" filterUnits="userSpaceOnUse" x="-416.9" y="20.6" width="2415.9" height="1087.6">
		<feColorMatrix  type="matrix" values="1 0 0 0 0  0 1 0 0 0  0 0 1 0 0  0 0 0 1 0"/>
	</filter>
</defs>
<mask maskUnits="userSpaceOnUse" x="-416.9" y="20.6" width="2415.9" height="1087.6" id="mask0_219_943">
	<rect x="-1" class="st0" width="1440" height="477"/>
</mask>
<g class="st1">
	<g>
		<path class="st2" d="M1553,1057.3c-72.6,16.9-186.1-4-238.6-45.9c-52.5-41.9-99.2-87.6-191.2-92.7c-91.9-5.1-142.7,34-224.7-16.6
			C816.6,851.6,781.7,840.9,714,836s-131.3-3.8-227.3-47.6c-96-43.8-161.1-4.9-177.8,4.1c-16.7,9-53.7,36-126.7,36.6
			c-72.9,0.6-124-22-146.7-29.7c-22.6-7.7-64.3-31.5-115.1-70.4c-50.8-38.9-81.2-52.2-117.9-54.3c-36.7-2-66.5,19-94.9,36
			c-28.4,17-57.1,18.4-78.9,17.7c-17.4-0.5-37.7-5-45.7-7.2l31.8-571c8.2-1.3,28.9-3.5,46.2-2.1c21.7,1.8,50.1,6.3,76.4,26.4
			c26.3,20.1,53.6,44.3,90.3,46.3c36.7,2,68.4-7.8,123.2-40.9c54.8-33,98.9-52.1,122.2-57.2c23.3-5.1,76.6-21.9,149.1-13.2
			c72.4,8.7,106.2,39.7,121.8,50.4s76,56.6,176.3,23.8s163.4-24.7,231.2-22c67.8,2.6,103.7-4.1,190.7-45.3
			c87-41.1,133.2,3.3,225.1,8.5c91.9,5.1,143.4-35.1,200.3-70.9c56.8-35.8,172-44,242.2-19.1L1553,1057.3z"/>
	</g>
	<g>
		<path class="st3" d="M-34.2,1102c75,17.7,192.1-4,246.3-47.7c54.2-43.6,102.3-91.2,197.2-96.5c94.9-5.3,147.3,35.5,231.9-17.2
			c84.6-52.6,120.6-63.7,190.4-68.8c69.8-5.1,135.5-3.9,234.6-49.4c99.1-45.5,166.3-5,183.6,4.3c17.2,9.3,55.5,37.5,130.8,38.2
			c75.3,0.7,128-22.9,151.4-30.9c23.4-8,66.4-32.8,118.8-73.3c52.4-40.5,83.8-54.4,121.6-56.5c37.8-2.1,68.6,19.8,97.9,37.6
			c29.3,17.8,59,19.2,81.4,18.5c18-0.5,38.9-5.2,47.2-7.5l-33.1-594.9c-8.4-1.3-29.8-3.7-47.7-2.2c-22.4,1.9-51.7,6.5-78.9,27.4
			s-55.3,46.1-93.2,48.2c-37.8,2.1-70.6-8.2-127.2-42.6c-56.6-34.4-102.1-54.3-126.2-59.7c-24.1-5.3-79.1-22.9-153.9-13.9
			c-74.8,9-109.6,41.3-125.7,52.5c-16.1,11.2-78.4,58.9-182,24.7c-103.5-34.3-168.7-25.8-238.6-23.1c-70,2.7-107-4.4-196.9-47.2
			c-89.9-42.9-137.5,3.4-232.4,8.7c-94.9,5.3-148.1-36.6-206.7-74C97.9,19.5-20.9,11-93.4,36.9L-34.2,1102z"/>
	</g>
</g>
</svg>
