<?xml version="1.0" encoding="utf-8"?>
<!-- Generator: Adobe Illustrator 21.0.0, SVG Export Plug-In . SVG Version: 6.00 Build 0)  -->
<svg version="1.1" id="Layer_1" xmlns="http://www.w3.org/2000/svg" xmlns:xlink="http://www.w3.org/1999/xlink" x="0px" y="0px"
	 viewBox="0 0 1921 1532" style="enable-background:new 0 0 1921 1532;" xml:space="preserve">
<style type="text/css">
	.st0{fill:#CEEEF2;}
	.st1{fill:#C2EDF2;}
	.st2{fill:#8FE2EF;}
</style>
<g>
	<path class="st0" d="M1918,1520.6c-69.1,25-179.7,7.6-232.6-38.8s-100.4-97.7-189.3-97.7c-89,0-135.8,49.9-217.6-4.8
		c-81.8-54.7-116-65.1-181.5-66.5s-126.8,4.2-221.8-41.6c-95-45.7-155.7,4.8-171.3,16.6c-15.6,11.8-49.9,46.4-120.2,52
		s-120.8-18-143.1-25.6c-22.2-7.6-63.7-33.3-114.8-76.2c-51.1-43-81.1-56.8-116.6-56.8s-63.1,27-89.6,49.2
		c-26.4,22.2-54.1,25.6-75.1,26.3c-16.8,0.6-36.7-3.5-44.5-5.5V569c7.8-2.1,27.6-6.1,44.5-5.5c21,0.7,48.7,4.2,75.1,26.3
		C146,612,173.7,639,209.2,639s65.5-13.9,116.6-56.8c51.1-43,92.6-68.6,114.8-76.2c22.2-7.6,72.7-31.2,143.1-25.6
		c70.3,5.5,104.6,40.2,120.2,52c15.6,11.8,76.3,62.4,171.3,16.6c95-45.7,156.3-40.2,221.8-41.6s99.8-11.8,181.5-66.5
		s128.6-4.9,217.6-4.9s136.4-51.3,189.3-97.7s163.5-63.8,232.6-38.8V1520.6z"/>
</g>
<path class="st1" d="M626,761.4c-76.5,0-220,5-260,0H218c-32.5-2.5-188.7-61.9-218-73.3V0.9h1918v642c-36,0.4-57.5,12.2-111.5,35.6
	c-54,23.5-86.5,127-223.5,96.8s-132.5,10.1-209,5c-74.3-4.9-179,16.8-311.5-26s-186-24.7-239-6.3S742,761.4,626,761.4z"/>
<g>
	<path class="st2" d="M1384,661c-117-33.5-192-43.6-270-43.6c-83,0-158,40.2-316,120.7s-245,36-342-9.2c-97-45.3-232-44.4-332-58.7
		C44,658.8,8.7,629.7,1,616.6V0h1920v576.3c-66-6.7-111,21.8-192,61.2S1501,694.5,1384,661z"/>
</g>
</svg>
